<svg width="30" height="26" viewBox="0 0 30 26" fill="none" xmlns="http://www.w3.org/2000/svg">
<path d="M10.8572 0L8.24289 2.85714H3.71432C2.14289 2.85714 0.857178 4.14286 0.857178 5.71429V22.8571C0.857178 24.4286 2.14289 25.7143 3.71432 25.7143H26.5715C28.1429 25.7143 29.4286 24.4286 29.4286 22.8571V5.71429C29.4286 4.14286 28.1429 2.85714 26.5715 2.85714H22.0429L19.4286 0H10.8572ZM15.1429 21.4286C11.2 21.4286 8.00004 18.2286 8.00004 14.2857C8.00004 10.3429 11.2 7.14286 15.1429 7.14286C19.0857 7.14286 22.2857 10.3429 22.2857 14.2857C22.2857 18.2286 19.0857 21.4286 15.1429 21.4286Z" fill="white"/>
</svg>
