<svg width="53" height="69" viewBox="0 0 53 69" fill="none" xmlns="http://www.w3.org/2000/svg">
<g filter="url(#filter0_d)">
<path d="M47.75 23H44V18C44 8.35039 36.1497 0.5 26.5 0.5C16.8503 0.5 9.00004 8.35039 9.00004 18V23H5.25004C4.5591 23 4 23.5591 4 24.25V55.5001C4 58.2576 6.24238 60.5 9.00004 60.5H44.0001C46.7576 60.5 49 58.2576 49 55.5V24.25C49 23.5591 48.4409 23 47.75 23ZM30.2427 49.1121C30.2818 49.4648 30.1683 49.8188 29.9315 50.0838C29.6947 50.3486 29.3553 50.5 29.0001 50.5H24C23.6448 50.5 23.3055 50.3486 23.0686 50.0838C22.8318 49.8189 22.7182 49.4649 22.7574 49.1121L23.5459 42.0211C22.2654 41.0896 21.5001 39.6162 21.5001 38C21.5001 35.2425 23.7425 33 26.5001 33C29.2578 33 31.5002 35.2423 31.5002 38C31.5002 39.6162 30.7348 41.0896 29.4543 42.0211L30.2427 49.1121ZM36.5 23H16.5V18C16.5 12.4861 20.9861 8 26.5 8C32.0139 8 36.5 12.4861 36.5 18V23Z" fill="black"/>
</g>
<defs>
<filter id="filter0_d" x="0" y="0.5" width="53" height="68" filterUnits="userSpaceOnUse" color-interpolation-filters="sRGB">
<feFlood flood-opacity="0" result="BackgroundImageFix"/>
<feColorMatrix in="SourceAlpha" type="matrix" values="0 0 0 0 0 0 0 0 0 0 0 0 0 0 0 0 0 0 127 0"/>
<feOffset dy="4"/>
<feGaussianBlur stdDeviation="2"/>
<feColorMatrix type="matrix" values="0 0 0 0 0 0 0 0 0 0 0 0 0 0 0 0 0 0 0.25 0"/>
<feBlend mode="normal" in2="BackgroundImageFix" result="effect1_dropShadow"/>
<feBlend mode="normal" in="SourceGraphic" in2="effect1_dropShadow" result="shape"/>
</filter>
</defs>
</svg>
