<?xml version="1.0" encoding="UTF-8" standalone="no"?>
<svg
   xmlns:dc="http://purl.org/dc/elements/1.1/"
   xmlns:cc="http://creativecommons.org/ns#"
   xmlns:rdf="http://www.w3.org/1999/02/22-rdf-syntax-ns#"
   xmlns:svg="http://www.w3.org/2000/svg"
   xmlns="http://www.w3.org/2000/svg"
   xmlns:sodipodi="http://sodipodi.sourceforge.net/DTD/sodipodi-0.dtd"
   xmlns:inkscape="http://www.inkscape.org/namespaces/inkscape"
   width="61.890682"
   height="55.065472"
   viewBox="0 0 61.890682 55.065472"
   fill="none"
   version="1.1"
   id="svg12"
   sodipodi:docname="huella.svg"
   inkscape:version="1.0.2 (e86c870879, 2021-01-15)">
  <metadata
     id="metadata18">
    <rdf:RDF>
      <cc:Work
         rdf:about="">
        <dc:format>image/svg+xml</dc:format>
        <dc:type
           rdf:resource="http://purl.org/dc/dcmitype/StillImage" />
      </cc:Work>
    </rdf:RDF>
  </metadata>
  <defs
     id="defs16" />
  <sodipodi:namedview
     pagecolor="#ffffff"
     bordercolor="#666666"
     borderopacity="1"
     objecttolerance="10"
     gridtolerance="10"
     guidetolerance="10"
     inkscape:pageopacity="0"
     inkscape:pageshadow="2"
     inkscape:window-width="944"
     inkscape:window-height="508"
     id="namedview14"
     showgrid="false"
     inkscape:zoom="2.6863744"
     inkscape:cx="7.8969825"
     inkscape:cy="23.448719"
     inkscape:window-x="964"
     inkscape:window-y="527"
     inkscape:window-maximized="0"
     inkscape:current-layer="svg12" />
  <path
     d="m 22.408781,21.341729 c 4.1254,0 7.4696,-4.7775 7.4696,-10.6709 C 29.878381,4.777499 26.534181,0 22.408781,0 c -4.1253,0 -7.4696,4.777499 -7.4696,10.670829 0,5.8934 3.3443,10.6709 7.4696,10.6709 z"
     fill="#fdbd40"
     id="path2" />
  <path
     d="m 39.482581,21.341729 c 4.1253,0 7.4695,-4.7775 7.4695,-10.6709 C 46.952081,4.777499 43.607881,0 39.482581,0 c -4.1254,0 -7.4696,4.777499 -7.4696,10.670829 0,5.8934 3.3442,10.6709 7.4696,10.6709 z"
     fill="#fdbd40"
     id="path4" />
  <path
     d="m 12.804981,23.475929 c 0,5.8935 -0.732,10.6708 -4.2683,10.6708 C 5.000361,34.146729 0,29.369429 0,23.475929 c 0,-5.8935 2.866191,-10.6709 6.402511,-10.6709 3.53627,0 6.40247,4.7774 6.40247,10.6709 z"
     fill="#fdbd40"
     id="path6" />
  <path
     d="m 61.890681,23.475929 c 0,5.8935 -5.0003,10.6708 -8.5366,10.6708 -3.5364,0 -4.2684,-4.7773 -4.2684,-10.6708 0,-5.8935 2.8662,-10.6709 6.4025,-10.6709 3.5363,0 6.4025,4.7774 6.4025,10.6709 z"
     fill="#fdbd40"
     id="path8" />
  <path
     d="m 48.018781,41.768929 c 0,6.3929 -3.308,11.7646 -10.6708,13.2873 -1.3638,0.2817 -4.9289,-5.9703 -6.4026,-5.9703 -1.4736,0 -5.0387,6.252 -6.4025,5.9703 -7.3628,-1.5227 -10.6708,-6.8944 -10.6708,-13.2873 0,-7.5774 7.6435,-18.293 17.0733,-18.293 9.4299,0 17.0734,10.7156 17.0734,18.293 z"
     fill="#fdbd40"
     id="path10" />
</svg>
