<?xml version="1.0" encoding="UTF-8" standalone="no"?>
<svg
   xmlns:dc="http://purl.org/dc/elements/1.1/"
   xmlns:cc="http://creativecommons.org/ns#"
   xmlns:rdf="http://www.w3.org/1999/02/22-rdf-syntax-ns#"
   xmlns:svg="http://www.w3.org/2000/svg"
   xmlns="http://www.w3.org/2000/svg"
   xmlns:sodipodi="http://sodipodi.sourceforge.net/DTD/sodipodi-0.dtd"
   xmlns:inkscape="http://www.inkscape.org/namespaces/inkscape"
   width="573.72693"
   height="570.10004"
   version="1.1"
   id="svg929"
   sodipodi:docname="logo_dibujado.svg"
   inkscape:version="1.0.2 (e86c870879, 2021-01-15)">
  <metadata
     id="metadata935">
    <rdf:RDF>
      <cc:Work
         rdf:about="">
        <dc:format>image/svg+xml</dc:format>
        <dc:type
           rdf:resource="http://purl.org/dc/dcmitype/StillImage" />
        <dc:title></dc:title>
      </cc:Work>
    </rdf:RDF>
  </metadata>
  <defs
     id="defs933">
    <inkscape:path-effect
       effect="simplify"
       id="path-effect1544"
       is_visible="true"
       lpeversion="1"
       steps="1"
       threshold="0.0001"
       smooth_angles="360"
       helper_size="0"
       simplify_individual_paths="false"
       simplify_just_coalesce="false" />
    <inkscape:path-effect
       effect="simplify"
       id="path-effect1540"
       is_visible="true"
       lpeversion="1"
       steps="1"
       threshold="0.0001"
       smooth_angles="360"
       helper_size="0"
       simplify_individual_paths="false"
       simplify_just_coalesce="false" />
  </defs>
  <sodipodi:namedview
     pagecolor="#ffffff"
     bordercolor="#666666"
     borderopacity="1"
     objecttolerance="10"
     gridtolerance="10"
     guidetolerance="10"
     inkscape:pageopacity="0"
     inkscape:pageshadow="2"
     inkscape:window-width="1920"
     inkscape:window-height="1047"
     id="namedview931"
     showgrid="false"
     inkscape:zoom="1.2496329"
     inkscape:cx="180.19497"
     inkscape:cy="295.97996"
     inkscape:window-x="0"
     inkscape:window-y="0"
     inkscape:window-maximized="0"
     inkscape:current-layer="svg929" />
  <path
     style="fill:#0d0b0d;stroke:none"
     d="m 565.64689,278.13727 c 3.6059,-2.806 6.693,-8.114 7.737,-14 2.728,-15.387 -11.241,-29.318 -26.737,-23.982 -7.26,2.5 -9.199,11.343 -16.04,13.409 -4.584,1.385 -10.189,1.135 -14.96,1.729 -7.685,0.957 -15.295,2.903 -23,3.673 -4.323,0.433 -8.679,-0.055 -13,0.456 -7.375,0.873 -14.651,2.249 -22,3.287 -3.125,0.441 -6.787,0.884 -8.991,-1.89 -2.562,-3.224 -1.807,-7.971 -3.219,-11.682 -4.317,-11.345 -8.948,-23.761 -15.374,-34 -2.113,-3.367 -7.373,-10.505 -4.504,-14.241 3.151,-4.103 10.061,-9.31 15.178,-10.46 4.21,-0.947 8.667,0.185 12.91,-0.679 9.221,-1.877 15.174,-9.369 15.907,-18.62 0.422,-5.341 -0.541,-12.063 -4.378,-16.12 -10.342,-10.936 -32.291,-8.626 -34.529,8.12 -0.38557,3.37155 -2.08327,5.16185 -5.56,7.995 -2.79194,2.91813 -4.978,5.385 -8.03,7.594 -2.374,1.717 -5.215,4.34 -8.092,1.96 -3.383,-2.8 -2.151,-8.703 -2.603,-12.549 -0.843,-7.165 0.436,-13.859 1.115,-21 0.476,-4.997 -0.061,-10.008 0.594,-15 0.596,-4.537 2.443,-14.272 -0.742,-18.107 -4.353,-5.239 -12.942,0.864 -16.682,3.705 -6.737,5.117 -13.033,12.049 -18.996,18.067 -6.299,6.357 -8.426,11.144 -18.004,8.928 -5.409,-1.251 -10.589,-1.24 -12.427,-7.597 -2.199,-7.601 3.516,-14.815 5.231,-21.996 2.244,-9.397 5.503,-18.617002 7.668,-28.000002 2.761,-11.965 5.122,-25.9164 11.141,-36.8951 3.431,-6.2565 11.707,-8.1012 14.838,-15.0903 5.657,-12.6291 -0.034,-32.2361999 -15.451,-34.7907999 -17.518,-2.9029 -32.416,12.1238999 -28.517,29.7723999 1.238,5.6015 8.072,8.6959 7.017,14.8341 -3.313,19.2792 -10.605,38.3197 -15.634,57.169702 -1.691,6.338 -3.505,12.645 -5.165,19 -1.434,5.493 -1.832,11.402 -8.702,12.516 -7.886,1.28 -17.985,-1.878 -25.999,-2.427 -11.747,-0.804 -24.386,1.351 -36,3.082 -5.779,0.861 -15.138,7.572 -20.239,2.507 -3.844,-3.816 -4.6,-8.924 -6.56,-13.678 -3.694,-8.962 -6.964,-17.883 -10.255,-27.000002 -1.649,-4.57 -5.321,-10.309 -5.808,-15.089 -0.318,-3.118 1.9,-6.037 2.804,-8.911 1.269,-4.035 1.552,-8.89 0.445,-13 -2.741,-10.176 -16.249,-17.0575 -26.387,-14.4429 -12.526,3.2307 -17.555,19.6289 -11.721,30.4379 3.482,6.453 11.988,7.862 15.585,14.264 1.61,2.865 1.913,6.637 3.021,9.741 3.323,9.309002 6.415,18.850002 10.11,28.000002 1.898,4.7 8.962,14.623 6.842,19.625 -2.102,4.96 -9.079,7.558 -13.836,5.387 -4.279,-1.953 -10.32422,-6.42272 -13.80122,-9.37572 -6.47,-5.497 -10.35078,-9.67428 -16.74478,-15.14128 -3.531,-3.02 -8.674,-10.487 -14.021,-5.891 -2.41,2.072 -2.39,5.491 -2.43,8.396 -0.084,5.998 -0.004,12.002 -0.004,18 v 37 c 0,5.639 1.032,12.49 -0.569,17.946 -1.325,4.517 -5.376,8.944 -7.439,13.339 -2.33,4.961 -4.351,14.942 -10.096,17.093 -2.98,1.116 -5.463,-0.729 -8.066,-1.865 -4.702,-2.052 -9.985,-3.617 -14.83,-5.387 -15.133901,-5.529 -30.720301,-9.965 -46.000001,-15.122 -5.6026,-1.891 -12.5933,-2.618 -17.6752,-5.692 -4.3234,-2.615 -6.9396,-7.694 -10.9151,-10.841 -6.5151,-5.158 -18.0705,-5.982 -24.9452002,-1.077 -11.5437074,8.234 -11.116155,31.886 3.5401002,37.017 4.5447,1.591 12.5085,1.179 16.956,-0.555 3.1159,-1.214 5.4575,-3.809 9.0147,-3.668 3.3379,0.132 6.0194,2.485 9.0394,3.624 5.1094,1.927 10.7469,2.885 15.9853,4.68 13.7773,4.719 28.2127,7.768 41.754001,13.168 5.341,2.131 16.142,3.39 19.204,8.669 1.771,3.056 0.117,7.58 -0.82,10.671 -2.12,6.993 -3.138,12.671 -3.138,20 v 23 c -0.001,3.03 0.564,6.963 -1.603,9.428 -1.395,1.587 -3.448,2.189 -5.398,2.763 -2.829,0.834 -5.986,1.926 -8.96,1.355 -4.943001,-0.95 -7.887201,-5.466 -12.363801,-7.033 -10.7086,-3.749 -23.3041,2.894 -26.7593,13.488 -1.1122,3.41 -1.2127,7.441 -0.7276,10.984 1.7792,12.996 17.5929,19.004 28.7723,14.613 4.4184,-1.736 8.639741,-7.88011 12.563741,-10.34711 2.617,-1.646 5.55028,-1.70992 8.36528,-2.85092 3.187,-1.293 5.33538,-1.23797 8.84638,0.60303 4.63422,3.44346 10.98697,18.7357 12.10316,23.75376 1.457,10.401 -10.00416,11.53424 -17.00916,15.42424 -8.152,4.528 -15.744,10.921 -24.115501,14.885 -4.7412,2.245 -10.6819,0.271 -15.7145,1.723 -11.2926,3.26 -17.7077,16.978 -12.7863,27.925 6.1864,13.76 25.5518,18.401 35.743301,6.076 2.072,-2.506 3.925,-5.598 4.649,-8.79 0.65,-2.86 -0.006,-5.986 1.997,-8.402 5.19,-6.257 14.19,-9.879 20.821,-14.092 4.786,-3.041 14.716,-12.24 20.572,-8.859 6.34717,7.68039 12.17825,19.46624 20.13,26.108 3.87,4.258 9.985,7.013 14.799,10.03 9.031,5.659 17.565,12.149 27.074,17.085 5.497,2.853 11.937,4.914 16.996,8.459 1.895,1.329 4.502,3.145 4.718,5.671 0.15,1.755 -1.099,3.484 -1.44,5.17 -1.042,5.154 -2.006,9.725 -3.465,14.83 -3.399,11.888 -6.861,23.314 -11.019,35 -1.233,3.463 -1.054,7.524 -2.935,10.741 -4.523,7.734 -13.39,9.399 -15.552,19.259 -3.09,14.094 10.208,26.457 23.698,24.816 2.798,-0.341 5.494,-1.245 7.996,-2.53 1.953,-1.003 3.914,-2.198 5.485,-3.746 11.151,-10.982 -0.95,-25.093 0.707,-37.536 0.444,-3.334 2.396,-5.92 3.259,-9.093 3.013,-11.082 5.907,-21.916 9.46,-32.911 1.946,-6.02 2.121,-17.485 8.282,-20.968 4.473,-2.53 14.617,-0.032 19.811,-0.032 15.621,0 31.55,-0.644 47,-3.09 5.912,-0.935 14.898,-7.63 20.16,-1.607 3.725,4.264 5.365,10.466 7.375,15.607 1.054,2.696 2.824,5.193 3.226,8.105 0.829,6.01 -2.998,11.845 -2.653,17.985 0.854,15.196 14.711,24.053 28.853,18.601 12.473,-4.809 15.546,-19.429 10.177,-30.586 -3.12,-6.484 -8.971,-6.54 -13.748,-10.614 -4.6,-3.923 -6.003,-12.071 -8.228,-17.401 -1.572,-3.767 -4.29,-6.752 -4.66,-10.996 -0.478,-5.492 6.4,-9.257 10.513,-11.799 12.325,-7.615 21.481,-16.199 31.738,-26.452 3.292,-3.291 8.689,-11.708 13.301,-12.682 5.311,-1.122 13.906,6.637 17.946,9.63 3.544,2.626 6.505,6.082 10.17,8.52 5.227,3.479 11.057,5.38 14.798,10.872 3.111,4.566 1.114,9.994 3.037,14.907 4.96,12.668 19.092,17.376 30.695,9.85 10.708,-6.945 12.907,-23.612 3.14,-32.368 -5.314,-4.764 -12.83,-4 -18.801,-7.089 -11.398,-5.898 -22.636,-15.212 -33.039,-22.817 -4.198,-3.068 -10.392,-6.334 -13.164,-10.865 -1.843,-3.014 0.05,-5.375 1.285,-8.135 1.915,-4.281 2.69,-8.616 4.898,-12.861 4.051,-7.788 4.798,-17.247 6.611,-25.7 1.553,-7.245 3.995,-13.354 4.331,-21.015 0.247,-5.649 0.027,-11.346 0.039,-17 0.006,-2.845 -0.369,-6.342 1.603,-8.682 4.103,-4.869 14.76,-1.499 20.397,-3.043 13.796,-3.777 28.742,-4.048 43,-5.365 5.426,-0.5 10.465,-3.138 16,-2.801 5.24,0.318 9.07,3.898 14,5.182 6.475,1.686 17.62815,0.16926 19,-1.291 z"
     id="path925"
     sodipodi:nodetypes="ccsccccccccccccccccccccccsccccccccccccccccccccccccsccccccsscccscccccsccsccccscccccscccccccscccccccccccsccccccscscccsccsccccsccccccccccscccccccscccccc" />
  <path
     id="path927"
     style="fill:#fbfbfb;stroke:none"
     d="m 326.85197,266.53375 -4.00391,0.0488 c -0.29177,2.10978 -3.01879,18.54505 -12.21679,22.62305 -2.679,1.189 -5.14046,2.30053 -7.93946,0.76953 -4.536,-2.48 -5.93342,-16.31056 -12.73242,-14.10156 -3.363,1.093 -1.91502,6.61883 -2.91602,9.17383 -2.764,7.066 -10.57942,9.0324 -17.35742,7.9414 -4.671,-0.752 -10.25625,-6.17662 -10.90625,-10.89062 -0.454,-3.301 0.77867,-7.57158 -0.73633,-10.64258 -1.664,-3.372 -6.48296,-2.16892 -7.79296,0.83008 -5.524,12.649 6.71154,24.87089 17.43554,28.96289 4.095,1.562 11.74578,1.81361 15.67578,-0.27539 3.218,-1.71 5.3881,-4.54053 9.2461,-5.01953 2.946,-0.366 5.26912,1.48498 8.07812,1.95898 4.361,0.736 9.71203,0.12094 13.95703,-1.03906 13.031,-3.561 15.98699,-19.76185 12.20899,-30.33985 z" />
  <path
     id="path1552"
     style="fill:#fda7f5;fill-opacity:1;stroke:none"
     d="m 189.03947,254.38922 c -1.69831,-0.0438 -3.23008,0.0456 -4.39258,0.26563 -8.682,1.642 -20.38772,7.24087 -11.76172,17.29687 1.176,1.37 2.6405,2.67528 4.1875,3.61328 4.786,2.903 16.12638,2.57354 21.48438,1.26954 7.18,-1.748 9.94648,-13.20191 4.77148,-18.37891 -2.6025,-2.604 -9.19412,-3.93516 -14.28906,-4.06641 z" />
  <path
     id="path1550"
     style="fill:#fda7f5;fill-opacity:1;stroke:none"
     d="m 403.64689,250.13922 c -3.315,-0.023 -6.692,-0.16111 -10,0.0879 -5.118,0.386 -11.95056,4.53187 -12.26172,6.98047 l -0.31055,0.81641 c -0.36493,1.07359 -1.34021,6.71651 0.80079,10.47851 2.174,3.82 5.87148,3.63377 9.77148,3.63477 6.677,0.003 15.56216,-2.75469 18.91016,-9.30469 3.616,-7.072 0.52884,-12.64236 -6.91016,-12.69336 z" />
  <path
     id="path1548"
     style="fill:#fbfbfb;stroke:none"
     d="m 228.88908,212.58258 c -1.00812,-0.17729 -2.09474,-0.0957 -3.24024,0.31641 -12.154,4.372 -6.09454,21.49759 5.93946,17.43359 7.55562,-2.55062 4.35758,-16.50897 -2.69922,-17.75 z" />
  <path
     id="path1546"
     style="fill:#fbfbfb;stroke:none"
     d="m 360.03947,209.3775 c -3.75763,-0.49075 -7.97522,1.12835 -9.07422,4.90235 -0.957,3.288 -0.27017,7.37315 1.09375,8.83008 2.71556,2.285 5.37431,2.18061 7.49414,1.8789 2.05,-0.347 3.46641,-1.325 4.69141,-3 1.039,-1.42 1.82746,-3.10756 2.10546,-4.85156 0.74451,-4.668 -2.55292,-7.26902 -6.31054,-7.75977 z" />
</svg>
