<?xml version="1.0" encoding="UTF-8" standalone="no"?>
<svg
   xmlns:dc="http://purl.org/dc/elements/1.1/"
   xmlns:cc="http://creativecommons.org/ns#"
   xmlns:rdf="http://www.w3.org/1999/02/22-rdf-syntax-ns#"
   xmlns:svg="http://www.w3.org/2000/svg"
   xmlns="http://www.w3.org/2000/svg"
   xmlns:sodipodi="http://sodipodi.sourceforge.net/DTD/sodipodi-0.dtd"
   xmlns:inkscape="http://www.inkscape.org/namespaces/inkscape"
   width="133"
   height="124.51034"
   viewBox="0 0 133 124.51034"
   fill="none"
   version="1.1"
   id="svg4"
   sodipodi:docname="tienda.svg"
   inkscape:version="1.0.2 (e86c870879, 2021-01-15)">
  <metadata
     id="metadata10">
    <rdf:RDF>
      <cc:Work
         rdf:about="">
        <dc:format>image/svg+xml</dc:format>
        <dc:type
           rdf:resource="http://purl.org/dc/dcmitype/StillImage" />
      </cc:Work>
    </rdf:RDF>
  </metadata>
  <defs
     id="defs8" />
  <sodipodi:namedview
     pagecolor="#ffffff"
     bordercolor="#666666"
     borderopacity="1"
     objecttolerance="10"
     gridtolerance="10"
     guidetolerance="10"
     inkscape:pageopacity="0"
     inkscape:pageshadow="2"
     inkscape:window-width="1920"
     inkscape:window-height="1080"
     id="namedview6"
     showgrid="false"
     inkscape:zoom="4.5244201"
     inkscape:cx="9.0593753"
     inkscape:cy="57.885655"
     inkscape:window-x="0"
     inkscape:window-y="0"
     inkscape:window-maximized="0"
     inkscape:current-layer="svg4" />
  <path
     d="M 118.851,11.31914 V 0 H 11.3191 V 11.31914 L 0,50.93614 v 6.4859 c 0,5.9001 3.50045,11.1579 8.48936,13.7839 0,17.4711 0,53.3044 0,53.3044 H 31.1277 V 79.23404 H 53.766 v 45.2763 h 67.915 V 72.35764 C 128.127,70.45324 133,64.38614 133,57.42204 v -6.4859 z M 15.5638,67.32634 c -4.6635,0 -9.90423,-3.741 -9.90423,-10.7306 H 25.4681 c 0,6.9783 -5.2351,10.7306 -9.9043,10.7306 z m 80.649,-56.0072 5.6592,39.617 c -11.1009,0 -11.6612,0 -19.8082,0 l -2.8298,-39.617 z m 5.6592,45.2766 c 0,6.933 -5.1952,10.7306 -9.9039,10.7306 -4.8135,0 -9.9043,-3.8853 -9.9043,-10.7306 z m -60.8401,10.7306 c -4.6635,0 -9.9042,-3.741 -9.9042,-10.7306 h 19.8085 c 0,6.9783 -5.2351,10.7306 -9.9043,10.7306 z m 9.9043,-16.3902 c -7.8725,0 -8.9818,0 -19.8085,0 l 5.6595,-39.617 H 53.766 Z m 5.6595,5.6596 h 19.8086 c 0,6.9783 -5.2351,10.7306 -9.9043,10.7306 -4.6635,0 -9.9043,-3.741 -9.9043,-10.7306 z m 53.7663,56.5956 H 65.0851 v -33.9573 h 45.2769 z m 7.074,-45.865 c -4.813,0 -9.904,-3.8853 -9.904,-10.7306 h 19.808 c 0,6.933 -5.195,10.7306 -9.904,10.7306 z"
     fill="#000000"
     id="path2" />
</svg>
