<svg width="25" height="23" viewBox="0 0 25 23" fill="none" xmlns="http://www.w3.org/2000/svg">
<path d="M2.77358 23H22.2261C24.2153 23 25.4552 20.7734 24.4607 19L14.7344 1.65336C13.7398 -0.119969 11.2598 -0.119969 10.2652 1.65336L0.538998 19C-0.455586 20.7734 0.784414 23 2.77358 23ZM12.4998 13.6667C11.7894 13.6667 11.2082 13.0667 11.2082 12.3334V9.6667C11.2082 8.93336 11.7894 8.33336 12.4998 8.33336C13.2102 8.33336 13.7915 8.93336 13.7915 9.6667V12.3334C13.7915 13.0667 13.2102 13.6667 12.4998 13.6667ZM13.7915 19H11.2082V16.3334H13.7915V19Z" fill="#474747"/>
</svg>
